<?xml version="1.0" standalone="no"?>
<!DOCTYPE svg PUBLIC "-//W3C//DTD SVG 20010904//EN"
 "http://www.w3.org/TR/2001/REC-SVG-20010904/DTD/svg10.dtd">
<svg version="1.0" xmlns="http://www.w3.org/2000/svg"
 width="290.000000pt" height="310.000000pt" viewBox="0 0 290.000000 310.000000"
 preserveAspectRatio="xMidYMid meet">

<g transform="translate(0.000000,310.000000) scale(0.100000,-0.100000)"
fill="#000000" stroke="none">
<path d="M1334 3081 c-116 -42 -188 -96 -246 -185 -50 -78 -69 -143 -69 -242
0 -173 91 -323 241 -399 193 -96 447 -30 565 149 98 147 103 349 12 492 -51
82 -189 184 -249 184 -9 0 -20 5 -23 10 -11 17 -175 10 -231 -9z"/>
<path d="M1245 1551 c-121 -69 -371 -383 -409 -514 -5 -15 -15 -18 -53 -15
l-48 3 -5 52 c-7 65 -34 104 -86 121 -61 21 -341 13 -377 -11 -40 -26 -59 -62
-62 -115 -2 -46 -2 -47 -39 -53 -68 -11 -123 -67 -137 -140 -12 -66 -11 -577
2 -624 16 -56 75 -113 128 -121 31 -5 48 -15 67 -40 14 -18 39 -37 56 -43 17
-6 100 -11 185 -11 173 0 212 10 241 60 l17 30 731 0 732 0 16 -25 c38 -58 66
-65 246 -65 179 0 208 8 245 63 10 16 30 27 53 32 56 10 107 48 131 99 21 43
22 53 19 358 -3 295 -4 315 -24 348 -11 19 -38 45 -60 57 -38 22 -46 23 -376
23 l-338 0 -29 63 c-53 114 -222 333 -326 421 -86 73 -97 76 -284 76 -164 0
-166 0 -216 -29z"/>
</g>
</svg>
